# xmcd CD database file
#
# Track frame offsets:
#	150
#	12937
#	31497
#	42555
#	54266
#	67496
#	78395
#	91998
#	108953
#	118902
#	135247
#	146806
#	164941
#	190666
#	214028
#	234626
#	259037
#	291484
#	319368
#
# Disc length: 4633 seconds
#
# Revision: 0
# Processed by: cddbd v1.5.2PL0 Copyright (c) Steve Scherf et al.
# Submitted via: CDex 1.70beta2
#
DISCID=26121713
DTITLE=Nina Simone - Nina Simone sings Ellington
DYEAR=2012
DGENRE=Jazz
TTITLE0=Do Nothin' Till You Hear From Me
TTITLE1=I Got It Bad (And That Ain't Good)
TTITLE2=Hey, Buddy Bolden
TTITLE3=Merry Mending
TTITLE4=Something To Live For
TTITLE5=You Better Know It
TTITLE6=I Like The Sunrise (from The Liberian Suite)
TTITLE7=Solitude
TTITLE8=The Gal From Joe's
TTITLE9=Satin Doll
TTITLE10=It Don't Mean A Thing (If It Ain't Got That Swing)
TTITLE11=Mood Indigo
TTITLE12=Trouble In Mind
TTITLE13=Porgy
TTITLE14=Little Liza Jane
TTITLE15=You'd Be So Nice To Come Home
TTITLE16=Flo Me La
TTITLE17=Nina's Blues
TTITLE18=In The Evening By The Moonlight
EXTD=YEAR: 2012
EXTT0=
EXTT1=
EXTT2=
EXTT3=
EXTT4=
EXTT5=
EXTT6=
EXTT7=
EXTT8=
EXTT9=
EXTT10=
EXTT11=
EXTT12=
EXTT13=
EXTT14=
EXTT15=
EXTT16=
EXTT17=
EXTT18=
PLAYORDER=
